<?xml version="1.0" standalone="no"?>
<!DOCTYPE svg PUBLIC "-//W3C//DTD SVG 20010904//EN"
 "http://www.w3.org/TR/2001/REC-SVG-20010904/DTD/svg10.dtd">
<svg version="1.0" xmlns="http://www.w3.org/2000/svg"
 width="819.000000pt" height="819.000000pt" viewBox="0 0 819.000000 819.000000"
 preserveAspectRatio="xMidYMid meet">
<metadata>
Created by potrace 1.11, written by Peter Selinger 2001-2013
</metadata>
<g transform="translate(0.000000,819.000000) scale(0.100000,-0.100000)"
fill="#000000" stroke="none">
<path d="M2670 7670 l0 -240 -240 0 -240 0 0 -480 0 -480 -240 0 -240 0 0
-540 0 -540 240 0 240 0 0 -180 0 -180 240 0 240 0 0 -240 0 -240 -240 0 -240
0 0 -240 0 -240 -240 0 -240 0 0 -240 0 -240 -240 0 -240 0 0 -960 0 -960 480
0 480 0 0 -240 0 -240 -240 0 -240 0 0 -240 0 -240 -240 0 -240 0 0 -240 0
-240 1200 0 1200 0 0 720 0 720 480 0 480 0 0 -720 0 -720 1200 0 1200 0 0
240 0 240 -240 0 -240 0 0 240 0 240 -240 0 -240 0 0 240 0 240 480 0 480 0 0
960 0 960 -240 0 -240 0 0 240 0 240 -240 0 -240 0 0 240 0 240 -240 0 -240 0
0 240 0 240 480 0 480 0 0 240 0 240 240 0 240 0 0 240 0 240 -240 0 -240 0 0
240 0 240 -480 0 -480 0 0 240 0 240 480 0 480 0 0 240 0 240 -720 0 -720 0 0
240 0 240 -1200 0 -1200 0 0 -240z"/>
</g>
</svg>
